<?xml version="1.0" encoding="UTF-8"?>
<svg version="1.1" xmlns="http://www.w3.org/2000/svg" width="370" height="355">
<path d="M0 0 C122.1 0 244.2 0 370 0 C370 117.15 370 234.3 370 355 C247.9 355 125.8 355 0 355 C0 237.85 0 120.7 0 0 Z " fill="#09223C" transform="translate(0,0)"/>
<path d="M0 0 C23.00908696 -0.04010881 23.00908696 -0.04010881 32.81445312 -0.04882812 C39.50594882 -0.05480665 46.19743083 -0.06188058 52.88891602 -0.07543945 C58.28350792 -0.08630208 63.67808515 -0.09228402 69.07268715 -0.09487724 C71.13117008 -0.09672539 73.1896522 -0.10033432 75.24812889 -0.10573006 C78.13052483 -0.11298522 81.01286008 -0.11398904 83.89526367 -0.11352539 C84.74690598 -0.11712067 85.59854828 -0.12071594 86.47599792 -0.12442017 C94.44948017 -0.11053493 94.44948017 -0.11053493 98 1 C99 2.66666667 100 4.33333333 101 6 C102.95203957 7.63971324 104.97526868 9.10766934 107.0625 10.5703125 C108.91259229 11.93550157 110.49607679 13.26108878 112 15 C112 15.66 112 16.32 112 17 C112.66 17 113.32 17 114 17 C114.185625 17.5775 114.37125 18.155 114.5625 18.75 C116.30676573 21.48015506 118.32179923 22.32922191 121.140625 23.796875 C123.23728546 25.15353765 124.46650818 26.60029004 126 28.5625 C128.06023379 31.16402846 129.56756381 32.48036932 132.6875 33.625 C136.64971265 35.26969204 136.86289937 36.43296586 139 40 C141.35595842 42.24842067 141.35595842 42.24842067 144 44.25 C144.86625 44.93578125 145.7325 45.6215625 146.625 46.328125 C148.97173959 48.15030428 148.97173959 48.15030428 152 49 C152 49.66 152 50.32 152 51 C152.5775 51.226875 153.155 51.45375 153.75 51.6875 C156 53 156 53 157.9375 55.5 C160.21610911 58.26195044 161.70257839 58.81631019 165 60 C166.8125 61.5 166.8125 61.5 168 63 C168 63.66 168 64.32 168 65 C168.57621094 65.28230469 169.15242187 65.56460938 169.74609375 65.85546875 C180.52887798 71.33095537 180.52887798 71.33095537 183 77 C183.6875 79.3125 183.6875 79.3125 184 81 C184.61875 81.0825 185.2375 81.165 185.875 81.25 C188 82 188 82 189.0625 84 C189.371875 84.66 189.68125 85.32 190 86 C190.99 86.33 191.98 86.66 193 87 C192.67 87.99 192.34 88.98 192 90 C159 90 126 90 92 90 C92.33 123.66 92.66 157.32 93 192 C190.515 192.495 190.515 192.495 290 193 C290 222.7 290 252.4 290 283 C288.15082963 284.84917037 285.5319975 284.13302286 283.07046509 284.14663696 C281.79252579 284.14595718 281.79252579 284.14595718 280.48876953 284.14526367 C279.59611389 284.14862228 278.70345825 284.1519809 277.78375244 284.15544128 C274.81675851 284.16498258 271.84982084 284.16689605 268.8828125 284.16796875 C266.82876563 284.17117938 264.77471899 284.1745433 262.72067261 284.17805481 C258.40801463 284.18405422 254.09537671 284.1858939 249.78271484 284.18530273 C244.24859477 284.18520112 238.71460303 284.19884861 233.18051338 284.21607494 C228.93581549 284.22717857 224.69114877 284.22922244 220.44643784 284.22869301 C218.40583733 284.22987578 216.36523609 284.23431411 214.32464981 284.24202538 C211.47301432 284.25179126 208.62165926 284.24896058 205.77001953 284.24291992 C204.92210846 284.24853943 204.07419739 284.25415894 203.20059204 284.25994873 C199.28373454 284.23879835 197.33367183 284.22244789 194 282 C194 281.01 194 280.02 194 279 C193.34 279 192.68 279 192 279 C190.66796875 277.57421875 190.66796875 277.57421875 189.1875 275.6875 C186.70379851 272.69138437 184.49762321 270.79365293 181 269 C177.94753526 267.36209209 176.1494676 266.19150537 174 263.4375 C171.73770033 260.68032227 170.25388051 260.26980703 167 259 C165.29220027 257.37550757 163.62449243 255.70779973 162 254 C161.236875 253.443125 160.47375 252.88625 159.6875 252.3125 C159.130625 251.879375 158.57375 251.44625 158 251 C158 250.34 158 249.68 158 249 C157.443125 248.938125 156.88625 248.87625 156.3125 248.8125 C153.03510391 247.66098245 151.3804232 245.4965414 149 243 C148.154375 242.34 147.30875 241.68 146.4375 241 C144 239 144 239 141.9375 236.3125 C139.74670969 233.69768575 139.13493658 233.75998463 136 233 C134.32191821 231.34482718 132.65708836 229.67619024 131 228 C129.20452388 226.52075767 127.39165961 225.06238216 125.5625 223.625 C121.13250797 220.05473688 117.57755776 216.40314802 114 212 C113.34 211.67 112.68 211.34 112 211 C112 210.34 112 209.68 112 209 C111.46375 208.9484375 110.9275 208.896875 110.375 208.84375 C106.27080874 207.38568205 103.47923218 203.95360191 100.421875 200.94921875 C97.49779653 198.1506689 96.03172107 197.00793027 92 196 C92 225.04 92 254.08 92 284 C61.64 284 31.28 284 0 284 C-0.28076167 260.3625417 -0.28076167 260.3625417 -0.34179688 250.265625 C-0.38359896 243.38307798 -0.43298178 236.50118452 -0.52807617 229.61914062 C-0.60428639 224.06885125 -0.64602237 218.51926292 -0.6641407 212.9684906 C-0.67704775 210.85376452 -0.70225312 208.73907564 -0.7401104 206.62464905 C-0.79113779 203.65583224 -0.7979151 200.68988981 -0.79467773 197.72070312 C-0.83242813 196.41734009 -0.83242813 196.41734009 -0.87094116 195.08764648 C-0.79899469 188.96598396 1.01573887 185.971904 5.27619839 181.61692047 C5.84505292 181.08333672 6.41390745 180.54975296 7 180 C7.74507812 179.29488281 8.49015625 178.58976563 9.2578125 177.86328125 C9.87398437 177.35152344 10.49015625 176.83976563 11.125 176.3125 C13.46451978 174.33429602 15.60036615 172.38598917 17.75 170.1875 C20 168 20 168 22.25 167 C22.8275 166.67 23.405 166.34 24 166 C24.12375 165.236875 24.2475 164.47375 24.375 163.6875 C25.14178419 160.39032796 26.61787074 159.453794 29.2421875 157.45703125 C33.46330995 153.95818975 36.97002197 149.54496704 40 145 C40.66 145 41.32 145 42 145 C42.2371875 144.443125 42.474375 143.88625 42.71875 143.3125 C44.82864165 139.50440287 47.94064009 136.59568198 50.90625 133.4375 C53.03755006 131.16536122 53.03755006 131.16536122 54.09375 128.75 C55 127 55 127 58 126 C60.04348668 124.29709443 61.12487812 122.77739117 62.4375 120.4375 C64 118 64 118 65.9375 117.0625 C68.99208489 115.48892597 70.1550216 112.82896688 72 110 C72.66 110 73.32 110 74 110 C74 109.34 74 108.68 74 108 C76.41020159 105.38320971 78.73381881 103.17951754 81.6875 101.1875 C84.86976179 98.57022835 84.86976179 98.57022835 86 91 C57.62 90.67 29.24 90.34 0 90 C0 60.3 0 30.6 0 0 Z " fill="#0392F3" transform="translate(40,39)"/>
<path d="M0 0 C90 0 90 0 92 1 C92.13923572 12.33545027 92.24574079 23.67069593 92.31087303 35.00682831 C92.34213909 40.27113628 92.38452582 45.5348577 92.45263672 50.79882812 C92.51799744 55.88226558 92.55374158 60.96514012 92.56926346 66.04896545 C92.58031982 67.98503985 92.60191087 69.92108465 92.63438034 71.85691833 C92.6781669 74.57650465 92.683925 77.29378781 92.68115234 80.01367188 C92.702724 80.80777466 92.72429565 81.60187744 92.746521 82.42004395 C92.67763532 88.6959577 90.3387987 92.52988715 86 97 C85.01 97.66 84.02 98.32 83 99 C82.71125 99.598125 82.4225 100.19625 82.125 100.8125 C80.58915242 103.79887029 78.42409617 105.68865249 76 108 C75.154375 108.845625 74.30875 109.69125 73.4375 110.5625 C71.96841759 112.03158241 70.47479673 113.47745751 68.9375 114.875 C66.7937161 117.04273513 66.7937161 117.04273513 65.25 120.375 C63.2037616 124.17631244 60.46876684 126.03106382 56.96484375 128.4453125 C54.89333697 130.08439738 53.60037324 131.69477486 52.125 133.875 C51.073125 135.421875 51.073125 135.421875 50 137 C49.34 137 48.68 137 48 137 C47.814375 137.70125 47.62875 138.4025 47.4375 139.125 C45.47932486 143.04135028 42.59323769 145.5338864 39 148 C38.34 148 37.68 148 37 148 C36.938125 148.5775 36.87625 149.155 36.8125 149.75 C35.6823124 152.87975028 33.58982308 153.96513901 31 156 C29.98343919 157.65661761 28.97934924 159.32111559 28 161 C27.34 161 26.68 161 26 161 C25.7421875 161.57234375 25.484375 162.1446875 25.21875 162.734375 C23.88634058 165.21128995 22.34943882 167.1341166 20.5 169.25 C19.8915625 169.95640625 19.283125 170.6628125 18.65625 171.390625 C17 173 17 173 15 173 C14.773125 173.556875 14.54625 174.11375 14.3125 174.6875 C13 177 13 177 10.5625 179.375 C7.91265032 182.08948016 6.52356523 184.55193133 5 188 C3.35 188 1.7 188 0 188 C0 125.96 0 63.92 0 0 Z " fill="#0392F4" transform="translate(238,39)"/>
<path d="M0 0 C23.00908696 -0.04010881 23.00908696 -0.04010881 32.81445312 -0.04882812 C39.50594882 -0.05480665 46.19743083 -0.06188058 52.88891602 -0.07543945 C58.28350792 -0.08630208 63.67808515 -0.09228402 69.07268715 -0.09487724 C71.13117008 -0.09672539 73.1896522 -0.10033432 75.24812889 -0.10573006 C78.13052483 -0.11298522 81.01286008 -0.11398904 83.89526367 -0.11352539 C84.74690598 -0.11712067 85.59854828 -0.12071594 86.47599792 -0.12442017 C94.44948017 -0.11053493 94.44948017 -0.11053493 98 1 C99 2.66666667 100 4.33333333 101 6 C102.95203957 7.63971324 104.97526868 9.10766934 107.0625 10.5703125 C108.91259229 11.93550157 110.49607679 13.26108878 112 15 C112 15.66 112 16.32 112 17 C112.66 17 113.32 17 114 17 C114 17.66 114 18.32 114 19 C110.4134946 17.66786942 107.12317517 16.23083941 104 14 C104 13.01 104 12.02 104 11 C103.236875 10.773125 102.47375 10.54625 101.6875 10.3125 C99 9 99 9 97.5625 6.4375 C96.23076786 3.7482313 96.23076786 3.7482313 93.44406128 3.35475159 C89.38606774 2.93676261 85.40868569 2.86796955 81.33251953 2.88647461 C80.48308273 2.88632858 79.63364594 2.88618256 78.75846863 2.8860321 C75.96655677 2.88672563 73.17471263 2.89449174 70.3828125 2.90234375 C68.44082679 2.90420992 66.4988406 2.90563288 64.55685425 2.90663147 C59.45726206 2.91044098 54.35769856 2.92025786 49.25811768 2.93133545 C43.13318474 2.94338653 37.00824219 2.94795927 30.88330078 2.95378876 C21.58884726 2.96347048 12.29445664 2.982638 3 3 C2.67 31.05 2.34 59.1 2 88 C94.07 87.505 94.07 87.505 188 87 C188 86.34 188 85.68 188 85 C186.68 84.67 185.36 84.34 184 84 C184 83.01 184 82.02 184 81 C185.875 81.25 185.875 81.25 188 82 C188.69937532 83.31647119 189.36729133 84.65022151 190 86 C190.99 86.33 191.98 86.66 193 87 C192.67 87.99 192.34 88.98 192 90 C159 90 126 90 92 90 C92.33 123.66 92.66 157.32 93 192 C190.515 192.495 190.515 192.495 290 193 C290 222.7 290 252.4 290 283 C287.91551411 285.08448589 283.36391198 284.15736033 280.48876953 284.16113281 C279.59611389 284.16609772 278.70345825 284.17106262 277.78375244 284.17617798 C274.81676476 284.19083974 271.84983053 284.19760826 268.8828125 284.203125 C266.82876584 284.20887316 264.77471921 284.21463093 262.72067261 284.22039795 C258.40801746 284.23091938 254.09538103 284.23675456 249.78271484 284.24023438 C244.24854006 284.2457214 238.71461103 284.26974914 233.18051338 284.29820633 C228.93581412 284.31680296 224.6911744 284.32203672 220.44643784 284.32357025 C218.40582816 284.32660406 216.3652197 284.33465696 214.32464981 284.34775543 C211.47291467 284.36475381 208.62178436 284.36295092 205.77001953 284.35644531 C204.92210846 284.3656601 204.07419739 284.37487488 203.20059204 284.3843689 C197.39165573 284.34272157 197.39165573 284.34272157 195.25958061 282.47703171 C194.84391901 281.98961124 194.42825741 281.50219078 194 281 C194.97389175 281.16265854 195.94778351 281.32531708 196.95118713 281.49290466 C201.23861723 282.1016416 205.45701338 282.13322278 209.78100586 282.11352539 C211.07581171 282.11370619 211.07581171 282.11370619 212.39677525 282.11389065 C215.16949167 282.11314888 217.94213947 282.10555439 220.71484375 282.09765625 C222.43526172 282.09618455 224.15568013 282.09516524 225.87609863 282.09460449 C232.22990595 282.08937804 238.58370366 282.07541678 244.9375 282.0625 C259.148125 282.041875 273.35875 282.02125 288 282 C288 253.29 288 224.58 288 195 C194.445 194.505 194.445 194.505 99 194 C99 195.65 99 197.3 99 199 C96.69 198.01 94.38 197.02 92 196 C92 225.04 92 254.08 92 284 C61.64 284 31.28 284 0 284 C-0.28076167 260.3625417 -0.28076167 260.3625417 -0.34179688 250.265625 C-0.38359896 243.38307798 -0.43298178 236.50118452 -0.52807617 229.61914062 C-0.60428639 224.06885125 -0.64602237 218.51926292 -0.6641407 212.9684906 C-0.67704775 210.85376452 -0.70225312 208.73907564 -0.7401104 206.62464905 C-0.79113779 203.65583224 -0.7979151 200.68988981 -0.79467773 197.72070312 C-0.83242813 196.41734009 -0.83242813 196.41734009 -0.87094116 195.08764648 C-0.79910876 188.97569007 1.00518819 185.98262123 5.25903225 181.63408661 C5.83355161 181.09483803 6.40807096 180.55558945 7 180 C7.80308594 179.236875 8.60617188 178.47375 9.43359375 177.6875 C10.09488281 177.130625 10.75617187 176.57375 11.4375 176 C12.11683594 175.4225 12.79617187 174.845 13.49609375 174.25 C13.99238281 173.8375 14.48867188 173.425 15 173 C15 177.32991847 12.88494631 178.91377837 10 182 C9.01 182.33 8.02 182.66 7 183 C2.28671801 188.25991424 1.28083707 193.31820352 1.43237305 200.16992188 C1.43127785 201.48840622 1.43127785 201.48840622 1.43016052 202.83352661 C1.4336187 205.71258227 1.4723948 208.5899802 1.51171875 211.46875 C1.5210532 213.47512936 1.52816632 215.48152017 1.53315735 217.48791504 C1.55217735 222.74890027 1.6012351 228.00918681 1.65667725 233.26989746 C1.71700945 239.59247399 1.73980975 245.91528515 1.76894379 252.23806763 C1.81730299 261.8258632 1.91315333 271.41212808 2 281 C31.04 281.33 60.08 281.66 90 282 C89.67 221.61 89.34 161.22 89 99 C88.01 99 87.02 99 86 99 C85.92394531 99.56332031 85.84789063 100.12664062 85.76953125 100.70703125 C84.72923613 103.80679388 83.00148213 105.3962411 80.6875 107.6875 C79.51767578 108.86892578 79.51767578 108.86892578 78.32421875 110.07421875 C76.08498241 111.929586 74.83489697 112.61725647 72 113 C72 113.66 72 114.32 72 115 C70.515 115.495 70.515 115.495 69 116 C69.8125 113.5625 69.8125 113.5625 71 111 C71.99 110.67 72.98 110.34 74 110 C74 109.34 74 108.68 74 108 C76.41020159 105.38320971 78.73381881 103.17951754 81.6875 101.1875 C84.86976179 98.57022835 84.86976179 98.57022835 86 91 C57.62 90.67 29.24 90.34 0 90 C0 60.3 0 30.6 0 0 Z " fill="#0C78C3" transform="translate(40,39)"/>
<path d="M0 0 C0.84732193 0.00359528 1.69464386 0.00719055 2.56764221 0.01089478 C3.89922363 0.01067574 3.89922363 0.01067574 5.25770569 0.01045227 C8.20666404 0.01115174 11.15556006 0.01894568 14.10450745 0.02676392 C16.14332037 0.02862798 18.18213374 0.03005194 20.22094727 0.03105164 C25.59844693 0.03487776 30.97591978 0.04470884 36.35340881 0.05575562 C41.83619321 0.06596771 47.31898192 0.07054882 52.80177307 0.07559204 C63.56806093 0.08633103 74.33432883 0.10340858 85.1006012 0.12442017 C85.1006012 0.45442017 85.1006012 0.78442017 85.1006012 1.12442017 C55.4006012 1.12442017 25.7006012 1.12442017 -4.8993988 1.12442017 C-4.8993988 63.16442017 -4.8993988 125.20442017 -4.8993988 189.12442017 C-3.2493988 188.79442017 -1.5993988 188.46442017 0.1006012 188.12442017 C0.82964205 186.48407824 1.48715362 184.81140099 2.1006012 183.12442017 C3.72034679 181.41211769 5.39649579 179.75278755 7.1006012 178.12442017 C8.93933838 176.0003617 10.75092295 173.85651757 12.54981995 171.69863892 C13.06157776 171.17914673 13.57333557 170.65965454 14.1006012 170.12442017 C14.7606012 170.12442017 15.4206012 170.12442017 16.1006012 170.12442017 C16.3274762 169.56754517 16.5543512 169.01067017 16.7881012 168.43692017 C18.45936832 165.49230666 20.70912523 163.51589613 23.1006012 161.12442017 C23.7812262 160.09317017 24.4618512 159.06192017 25.1631012 157.99942017 C26.99062168 155.28761557 28.50691766 154.00260479 31.1006012 152.12442017 C31.4306012 151.13442017 31.7606012 150.14442017 32.1006012 149.12442017 C33.8427887 147.69473267 33.8427887 147.69473267 35.9756012 146.24942017 C39.31365447 143.8650964 41.16150995 141.78714807 43.1006012 138.12442017 C43.7606012 138.12442017 44.4206012 138.12442017 45.1006012 138.12442017 C43.42041617 141.90713182 41.04002227 145.10574308 38.5381012 148.37442017 C38.09845032 148.95071167 37.65879944 149.52700317 37.20582581 150.12075806 C33.83627184 154.42700337 30.12483987 157.93111828 25.91700745 161.42910767 C23.86725547 163.14032466 23.86725547 163.14032466 22.6006012 166.18692017 C20.61935008 170.06687027 17.85516302 171.77511438 14.39356995 174.32754517 C9.94883965 177.81063875 6.18699691 181.45787889 5.1006012 187.12442017 C4.4406012 187.12442017 3.7806012 187.12442017 3.1006012 187.12442017 C2.7706012 188.11442017 2.4406012 189.10442017 2.1006012 190.12442017 C1.4406012 190.45442017 0.7806012 190.78442017 0.1006012 191.12442017 C29.1406012 191.45442017 58.1806012 191.78442017 88.1006012 192.12442017 C89.3905352 195.99422216 89.25628603 199.6614075 89.26173401 203.69497681 C89.26669891 204.57002365 89.27166382 205.4450705 89.27677917 206.34663391 C89.29139113 209.24262271 89.29819964 212.13855681 89.3037262 215.03457642 C89.3094765 217.04331972 89.31523424 219.05206301 89.32099915 221.06080627 C89.33150503 225.27154802 89.33735104 229.48227068 89.34083557 233.69302368 C89.3463329 239.09944723 89.37038902 244.50562053 89.39880753 249.91196537 C89.41738687 254.05968476 89.42263689 258.20734314 89.42417145 262.35510063 C89.42720694 264.34908867 89.43526541 266.34307541 89.44835663 268.33702278 C89.46532617 271.11929828 89.46355985 273.90095246 89.45704651 276.68325806 C89.46626129 277.51292084 89.47547607 278.34258362 89.48497009 279.1973877 C89.46809387 281.48735046 89.46809387 281.48735046 89.1006012 285.12442017 C85.18357586 287.73577039 81.84895555 287.42726537 77.30226135 287.43081665 C76.40277267 287.43914017 75.503284 287.44746368 74.57653809 287.45603943 C71.59753616 287.48017143 68.61875305 287.48891538 65.6396637 287.49551392 C63.57084588 287.50447767 61.50202874 287.51359946 59.43321228 287.52287292 C55.09381025 287.53937408 50.75448549 287.54706512 46.41505432 287.54995728 C40.85402741 287.55534282 35.2937263 287.59302544 29.73290443 287.63870144 C25.45894213 287.66844059 21.18515527 287.67568015 16.91109848 287.67668343 C14.86095734 287.68089182 12.81081596 287.6933508 10.76077652 287.71420097 C7.89255115 287.74105045 5.02601688 287.73630913 2.1577301 287.7237854 C0.88733635 287.74603683 0.88733635 287.74603683 -0.40872192 287.76873779 C-4.76265744 287.71458833 -6.3736932 287.55556834 -9.86000061 284.69633484 C-10.53300201 283.847603 -11.20600342 282.99887115 -11.8993988 282.12442017 C-13.60990122 280.35056581 -14.69582069 279.22620922 -16.8993988 278.12442017 C-16.8993988 277.46442017 -16.8993988 276.80442017 -16.8993988 276.12442017 C-18.8793988 275.79442017 -20.8593988 275.46442017 -22.8993988 275.12442017 C-23.2293988 273.80442017 -23.5593988 272.48442017 -23.8993988 271.12442017 C-24.4768988 271.06254517 -25.0543988 271.00067017 -25.6493988 270.93692017 C-28.77520165 269.80815803 -29.88092698 267.71058719 -31.8993988 265.12442017 C-34.01600307 263.8127676 -34.01600307 263.8127676 -35.8993988 263.12442017 C-35.8993988 262.46442017 -35.8993988 261.80442017 -35.8993988 261.12442017 C-37.2193988 260.79442017 -38.5393988 260.46442017 -39.8993988 260.12442017 C-39.8993988 259.46442017 -39.8993988 258.80442017 -39.8993988 258.12442017 C-40.8893988 257.79442017 -41.8793988 257.46442017 -42.8993988 257.12442017 C-42.8993988 256.46442017 -42.8993988 255.80442017 -42.8993988 255.12442017 C-43.8893988 254.79442017 -44.8793988 254.46442017 -45.8993988 254.12442017 C-46.2293988 253.46442017 -46.5593988 252.80442017 -46.8993988 252.12442017 C-47.8893988 251.79442017 -48.8793988 251.46442017 -49.8993988 251.12442017 C-50.2293988 250.13442017 -50.5593988 249.14442017 -50.8993988 248.12442017 C-47.9293988 249.11442017 -47.9293988 249.11442017 -44.8993988 250.12442017 C-44.8993988 250.78442017 -44.8993988 251.44442017 -44.8993988 252.12442017 C-44.0640863 252.46473267 -44.0640863 252.46473267 -43.2118988 252.81192017 C-40.8993988 254.12442017 -40.8993988 254.12442017 -38.5243988 256.56192017 C-35.79201101 259.22925111 -33.31617439 260.4903101 -29.8993988 262.12442017 C-28.0243988 263.68692017 -28.0243988 263.68692017 -26.8993988 265.12442017 C-26.8993988 265.78442017 -26.8993988 266.44442017 -26.8993988 267.12442017 C-25.9093988 267.43379517 -25.9093988 267.43379517 -24.8993988 267.74942017 C-19.695797 270.13440433 -14.69139011 273.80249219 -10.8993988 278.12442017 C-10.8993988 278.78442017 -10.8993988 279.44442017 -10.8993988 280.12442017 C-10.2393988 280.12442017 -9.5793988 280.12442017 -8.8993988 280.12442017 C-8.4043988 281.60942017 -8.4043988 281.60942017 -7.8993988 283.12442017 C-4.58188287 284.78317813 -0.87342827 284.2533132 2.77296448 284.23794556 C3.67058502 284.23809158 4.56820557 284.23823761 5.49302673 284.23838806 C8.46901338 284.2376897 11.44493794 284.22990084 14.4209137 284.22207642 C16.48071763 284.22021197 18.540522 284.21878819 20.60032654 284.2177887 C26.02877521 284.21396564 31.45719725 284.20413715 36.88563538 284.19308472 C43.39509531 284.18107025 49.90456414 284.17646734 56.41403198 284.17063141 C66.3095736 284.1609253 76.20505673 284.14176724 86.1006012 284.12442017 C86.5956012 239.57442017 86.5956012 239.57442017 87.1006012 194.12442017 C65.78659729 194.14182251 65.78659729 194.14182251 44.04200745 194.15957642 C35.06869997 194.16468272 26.09539355 194.16953771 17.12208557 194.17324829 C2.86256045 194.17919197 -11.39695879 194.18619556 -25.65647888 194.19985962 C-36.03959201 194.20980443 -46.42270038 194.21627311 -56.80581814 194.21850866 C-62.30724206 194.21981611 -67.80865237 194.22290414 -73.31007195 194.23015022 C-78.48178865 194.23690724 -83.65348606 194.23903778 -88.82520676 194.23752785 C-90.72921796 194.23780432 -92.63322977 194.23981132 -94.53723717 194.24362564 C-97.12493646 194.24855792 -99.71256165 194.24742019 -102.30026245 194.24467468 C-103.06386642 194.24758752 -103.8274704 194.25050037 -104.61421388 194.25350147 C-109.78527759 194.23854138 -109.78527759 194.23854138 -110.8993988 193.12442017 C-110.99476122 189.95829354 -111.02490517 186.81401389 -111.01292419 183.64761353 C-111.01314323 182.15509819 -111.01314323 182.15509819 -111.0133667 180.63243103 C-111.01266711 177.32635355 -111.0048726 174.02033162 -110.99705505 170.71426392 C-110.99519104 168.42882823 -110.99376706 166.14339216 -110.99276733 163.85795593 C-110.98894088 157.82943629 -110.9791095 151.80094058 -110.96806335 145.77243042 C-110.95605805 138.54630782 -110.9514476 131.32017725 -110.94561005 124.09404755 C-110.93589781 113.10415509 -110.91674214 102.11431517 -110.8993988 91.12442017 C-77.8993988 90.79442017 -44.8993988 90.46442017 -10.8993988 90.12442017 C-10.8993988 89.13442017 -10.8993988 88.14442017 -10.8993988 87.12442017 C-8.9193988 87.61942017 -8.9193988 87.61942017 -6.8993988 88.12442017 C-6.90161942 87.03669815 -6.90384003 85.94897614 -6.90612793 84.82829285 C-6.92635859 74.60088506 -6.94137057 64.3734813 -6.95121098 54.14605808 C-6.95644 48.88745353 -6.96353799 43.62886507 -6.97483826 38.37026978 C-6.98566646 33.2998889 -6.99167549 28.22952355 -6.99427605 23.159132 C-6.99613042 21.22015068 -6.99975126 19.28117026 -7.00512886 17.34219551 C-7.01233841 14.63620257 -7.01338978 11.93027461 -7.01292419 9.22427368 C-7.01651947 8.41435471 -7.02011475 7.60443573 -7.02381897 6.76997375 C-7.01125132 0.06492749 -6.68024279 0.01197176 0 0 Z M-109.8993988 92.12442017 C-109.8993988 125.45442017 -109.8993988 158.78442017 -109.8993988 193.12442017 C-58.9143988 192.62942017 -58.9143988 192.62942017 -6.8993988 192.12442017 C-6.8787738 175.81004517 -6.8581488 159.49567017 -6.8368988 142.68692017 C-6.8277948 137.52752808 -6.8186908 132.36813599 -6.80931091 127.05239868 C-6.80596736 122.44466434 -6.80596736 122.44466434 -6.80395508 117.83692932 C-6.80241521 115.77780441 -6.79888941 113.71868042 -6.79382324 111.65956116 C-6.78654831 108.54830346 -6.7854913 105.43710106 -6.78587341 102.32583618 C-6.78047625 100.94003152 -6.78047625 100.94003152 -6.77497005 99.52623081 C-6.37348026 95.50611665 -6.37348026 95.50611665 -7.8993988 92.12442017 C-11.06552543 92.02905775 -14.20980508 91.9989138 -17.37620544 92.01089478 C-18.37121567 92.01074875 -19.36622589 92.01060272 -20.39138794 92.01045227 C-23.69746542 92.01115186 -27.00348735 92.01894637 -30.30955505 92.02676392 C-32.59499073 92.02862793 -34.88042681 92.03005191 -37.16586304 92.03105164 C-43.19438267 92.03487809 -49.22287839 92.04470947 -55.25138855 92.05575562 C-62.47751115 92.06776092 -69.70364172 92.07237137 -76.92977142 92.07820892 C-87.91966388 92.08792115 -98.9095038 92.10707683 -109.8993988 92.12442017 Z " fill="#034072" transform="translate(242.89939880371094,37.875579833984375)"/>
<path d="M0 0 C90 0 90 0 92 1 C92.13923572 12.33545027 92.24574079 23.67069593 92.31087303 35.00682831 C92.34213909 40.27113628 92.38452582 45.5348577 92.45263672 50.79882812 C92.51799744 55.88226558 92.55374158 60.96514012 92.56926346 66.04896545 C92.58031982 67.98503985 92.60191087 69.92108465 92.63438034 71.85691833 C92.6781669 74.57650465 92.683925 77.29378781 92.68115234 80.01367188 C92.702724 80.80777466 92.72429565 81.60187744 92.746521 82.42004395 C92.67763532 88.6959577 90.3387987 92.52988715 86 97 C85.01 97.66 84.02 98.32 83 99 C82.71125 99.598125 82.4225 100.19625 82.125 100.8125 C80.58915242 103.79887029 78.42409617 105.68865249 76 108 C75.154375 108.845625 74.30875 109.69125 73.4375 110.5625 C71.96841759 112.03158241 70.47479673 113.47745751 68.9375 114.875 C66.78716443 117.05464987 66.78716443 117.05464987 65.1875 120.4375 C62.95688254 124.59415261 59.94118432 126.4988638 56 129 C57.75 125.125 57.75 125.125 60 124 C61.09712081 122.17809731 62.13091967 120.31760845 63.125 118.4375 C63.93324219 116.91962891 63.93324219 116.91962891 64.7578125 115.37109375 C65.16773438 114.58863281 65.57765625 113.80617188 66 113 C66.99 113 67.98 113 69 113 C69.268125 112.38125 69.53625 111.7625 69.8125 111.125 C71 109 71 109 74 107 C74.71727778 105.35448038 75.38325228 103.68577711 76 102 C78 99 78 99 81 98 C82.62371502 96.43918026 82.62371502 96.43918026 84.125 94.5625 C84.64320313 93.94503906 85.16140625 93.32757813 85.6953125 92.69140625 C87.06840284 91.02334668 87.06840284 91.02334668 88 89 C88.66 89 89.32 89 90 89 C89.67 60.62 89.34 32.24 89 3 C60.29 2.67 31.58 2.34 2 2 C2 29.72 2 57.44 2 86 C2.66 84.35 3.32 82.7 4 81 C4.66 81 5.32 81 6 81 C6 86.28 6 91.56 6 97 C4.515 97.495 4.515 97.495 3 98 C1.76197886 101.71406343 1.82343149 105.18130369 1.79467773 109.05151367 C1.78477814 109.87125168 1.77487854 110.69098969 1.76467896 111.53556824 C1.73307991 114.24633898 1.7083128 116.95712725 1.68359375 119.66796875 C1.66302285 121.54698646 1.64202634 123.42599955 1.62062073 125.30500793 C1.56541414 130.2517015 1.5159986 135.19843674 1.46777344 140.14520264 C1.41754813 145.19254262 1.36186743 150.23982207 1.30664062 155.28710938 C1.19907632 165.19135454 1.09762747 175.09565225 1 185 C2.32 185 3.64 185 5 185 C5 183.68 5 182.36 5 181 C6.63064764 179.94228261 8.30280873 178.94726954 10 178 C11.78344178 175.93045153 11.78344178 175.93045153 13 174 C13.66 174.33 14.32 174.66 15 175 C13.10310725 177.50660827 11.45559933 179.67840047 8.875 181.5 C6.52155188 183.3827585 5.91686848 185.17298887 5 188 C3.35 188 1.7 188 0 188 C0 125.96 0 63.92 0 0 Z " fill="#0D7BCB" transform="translate(238,39)"/>
<path d="M0 0 C23.00908696 -0.04010881 23.00908696 -0.04010881 32.81445312 -0.04882812 C39.50594882 -0.05480665 46.19743083 -0.06188058 52.88891602 -0.07543945 C58.28350792 -0.08630208 63.67808515 -0.09228402 69.07268715 -0.09487724 C71.13117008 -0.09672539 73.1896522 -0.10033432 75.24812889 -0.10573006 C78.13052483 -0.11298522 81.01286008 -0.11398904 83.89526367 -0.11352539 C84.74690598 -0.11712067 85.59854828 -0.12071594 86.47599792 -0.12442017 C94.44948017 -0.11053493 94.44948017 -0.11053493 98 1 C99 2.66666667 100 4.33333333 101 6 C102.95203957 7.63971324 104.97526868 9.10766934 107.0625 10.5703125 C108.91259229 11.93550157 110.49607679 13.26108878 112 15 C112 15.66 112 16.32 112 17 C112.66 17 113.32 17 114 17 C114 17.66 114 18.32 114 19 C110.4134946 17.66786942 107.12317517 16.23083941 104 14 C104 13.01 104 12.02 104 11 C103.236875 10.773125 102.47375 10.54625 101.6875 10.3125 C99 9 99 9 97.5625 6.4375 C96.23076786 3.7482313 96.23076786 3.7482313 93.44406128 3.35475159 C89.38606774 2.93676261 85.40868569 2.86796955 81.33251953 2.88647461 C80.48308273 2.88632858 79.63364594 2.88618256 78.75846863 2.8860321 C75.96655677 2.88672563 73.17471263 2.89449174 70.3828125 2.90234375 C68.44082679 2.90420992 66.4988406 2.90563288 64.55685425 2.90663147 C59.45726206 2.91044098 54.35769856 2.92025786 49.25811768 2.93133545 C43.13318474 2.94338653 37.00824219 2.94795927 30.88330078 2.95378876 C21.58884726 2.96347048 12.29445664 2.982638 3 3 C2.67 31.05 2.34 59.1 2 88 C94.07 87.505 94.07 87.505 188 87 C188 86.34 188 85.68 188 85 C186.68 84.67 185.36 84.34 184 84 C184 83.01 184 82.02 184 81 C186.86724686 81.57344937 187.8614515 81.8614515 190 84 C190 85.65 190 87.3 190 89 C127.3 89 64.6 89 0 89 C0 59.63 0 30.26 0 0 Z " fill="#1079C6" transform="translate(40,39)"/>
<path d="M0 0 C1.35646133 -0.00262848 1.35646133 -0.00262848 2.74032593 -0.00531006 C5.73372305 -0.00971652 8.72706125 -0.00679505 11.72045898 -0.00341797 C13.79646313 -0.00409129 15.8724672 -0.00506156 17.94847107 -0.00631714 C22.30045319 -0.00779243 26.65241479 -0.00564473 31.00439453 -0.00097656 C36.59232749 0.00472416 42.18021245 0.00143847 47.76814365 -0.00454903 C52.05482853 -0.00815615 56.34150196 -0.00701541 60.62818718 -0.00442123 C62.68914737 -0.00375257 64.75010859 -0.00457828 66.81106758 -0.00690079 C69.68657323 -0.00943016 72.56200024 -0.00558281 75.4375 0 C76.295215 -0.00202423 77.15292999 -0.00404846 78.03663635 -0.00613403 C83.92552342 0.01512987 83.92552342 0.01512987 86.15405273 1.12939453 C86.15405273 1.78939453 86.15405273 2.44939453 86.15405273 3.12939453 C54.47405273 2.79939453 22.79405273 2.46939453 -9.84594727 2.12939453 C-9.84594727 31.82939453 -9.84594727 61.52939453 -9.84594727 92.12939453 C18.53405273 92.12939453 46.91405273 92.12939453 76.15405273 92.12939453 C77.15405273 94.12939453 77.15405273 94.12939453 76.77124023 95.93408203 C75.05099383 100.7326641 73.47170934 103.18075099 69.15405273 106.12939453 C67.80258136 107.44433965 66.46292732 108.77204311 65.15405273 110.12939453 C65.61811523 108.98470703 65.61811523 108.98470703 66.09155273 107.81689453 C66.83298867 105.94149776 67.51633491 104.04254801 68.15405273 102.12939453 C69.14405273 102.12939453 70.13405273 102.12939453 71.15405273 102.12939453 C71.81405273 99.81939453 72.47405273 97.50939453 73.15405273 95.12939453 C52.80429143 94.27630085 32.46430775 93.847905 12.09936523 93.57714844 C8.32324992 93.52580156 4.54725921 93.46858645 0.77124023 93.41064453 C-0.38570343 93.39706909 -1.54264709 93.38349365 -2.73464966 93.36950684 C-3.78860931 93.35278931 -4.84256897 93.33607178 -5.9284668 93.31884766 C-6.85740753 93.30631958 -7.78634827 93.2937915 -8.74343872 93.28088379 C-10.84594727 93.12939453 -10.84594727 93.12939453 -11.84594727 92.12939453 C-11.94115633 89.29898781 -11.97148358 86.49304461 -11.95947266 83.66235352 C-11.95961868 82.77463257 -11.95976471 81.88691162 -11.95991516 80.97229004 C-11.9592157 78.02333169 -11.95142175 75.07443566 -11.94360352 72.12548828 C-11.94173945 70.08667536 -11.9403155 68.04786199 -11.9393158 66.00904846 C-11.93548967 60.63154879 -11.92565859 55.25407595 -11.91461182 49.87658691 C-11.90439972 44.39380252 -11.89981861 38.91101381 -11.89477539 33.42822266 C-11.8840364 22.6619348 -11.86695886 11.89566689 -11.84594727 1.12939453 C-7.89348505 -0.18809287 -4.11994701 -0.00974619 0 0 Z " fill="#033D6C" transform="translate(49.845947265625,36.87060546875)"/>
<path d="M0 0 C0.33 0 0.66 0 1 0 C1 62.37 1 124.74 1 189 C0.67 189 0.34 189 0 189 C-0.33 156.99 -0.66 124.98 -1 92 C-34.66 91.67 -68.32 91.34 -103 91 C-103 124.33 -103 157.66 -103 192 C-103.33 192 -103.66 192 -104 192 C-104 158.34 -104 124.68 -104 90 C-71 89.67 -38 89.34 -4 89 C-4 88.01 -4 87.02 -4 86 C-2.02 86.495 -2.02 86.495 0 87 C0 58.29 0 29.58 0 0 Z " fill="#003969" transform="translate(236,39)"/>
<path d="M0 0 C0.99 0.33 1.98 0.66 3 1 C2.67 1.99 2.34 2.98 2 4 C-31 4 -64 4 -98 4 C-98 37.33 -98 70.66 -98 105 C-98.33 105 -98.66 105 -99 105 C-99 72.99 -99 40.98 -99 8 C-100.98 8.99 -102.96 9.98 -105 11 C-104.67 9.02 -104.34 7.04 -104 5 C-132.38 4.67 -160.76 4.34 -190 4 C-190 3.67 -190 3.34 -190 3 C-127.3 3 -64.6 3 0 3 C0 2.01 0 1.02 0 0 Z " fill="#1064A5" transform="translate(230,125)"/>
<path d="M0 0 C0.66 0.33 1.32 0.66 2 1 C1.48050781 1.43570313 0.96101563 1.87140625 0.42578125 2.3203125 C-0.27160156 2.91585937 -0.96898437 3.51140625 -1.6875 4.125 C-2.37199219 4.70507812 -3.05648437 5.28515625 -3.76171875 5.8828125 C-9.57232778 11.14290637 -9.57232778 11.14290637 -11.63923645 18.36605835 C-11.67125204 20.07496972 -11.67625106 21.78452393 -11.65942383 23.49365234 C-11.66990753 24.43087128 -11.68039124 25.36809021 -11.69119263 26.33370972 C-11.71989403 29.41812444 -11.7136567 32.50141342 -11.70703125 35.5859375 C-11.72014922 37.72972009 -11.73545374 39.87349032 -11.75285339 42.01724243 C-11.79270436 47.64954142 -11.80289396 53.28151708 -11.80688477 58.91394043 C-11.81785757 65.67724098 -11.86570919 72.44036923 -11.90737152 79.20353699 C-11.96648457 89.46916979 -11.97878109 99.7339039 -12 110 C17.7 110 47.4 110 78 110 C78 110.33 78 110.66 78 111 C47.64 111 17.28 111 -14 111 C-14.12032643 86.95254054 -14.12032643 86.95254054 -14.14648438 76.71484375 C-14.16442912 69.72470279 -14.18567498 62.73467954 -14.22631836 55.74462891 C-14.25887553 50.11012735 -14.27684541 44.47575199 -14.28463173 38.84116364 C-14.29018177 36.68973046 -14.30101941 34.53830431 -14.31719017 32.38692474 C-14.33891579 29.37726323 -14.34196893 26.36812554 -14.34057617 23.35839844 C-14.351362 22.4657579 -14.36214783 21.57311737 -14.3732605 20.65342712 C-14.35060593 16.13969125 -14.3332615 13.36425267 -11 10 C-10.566875 9.154375 -10.13375 8.30875 -9.6875 7.4375 C-7.55929367 4.36342419 -5.37113625 3.50625237 -2 2 C-1.34 1.34 -0.68 0.68 0 0 Z " fill="#034778" transform="translate(52,213)"/>
<path d="M0 0 C0 4.32991847 -2.11505369 5.91377837 -5 9 C-5.99 9.33 -6.98 9.66 -8 10 C-12.77522284 15.30648806 -13.71714121 20.43766453 -13.56762695 27.35351562 C-13.56872215 28.70126068 -13.56872215 28.70126068 -13.56983948 30.07623291 C-13.56638035 33.02020497 -13.52759922 35.96255738 -13.48828125 38.90625 C-13.47894716 40.95747005 -13.47183386 43.00870131 -13.46684265 45.05993652 C-13.44781992 50.43928199 -13.39875965 55.81794448 -13.34332275 61.19702148 C-13.28299809 67.66143684 -13.26019157 74.12608153 -13.23105621 80.59069824 C-13.18269209 90.39427276 -13.08684335 100.19635089 -13 110 C16.37 110 45.74 110 76 110 C76 81.29 76 52.58 76 23 C76.33 23 76.66 23 77 23 C77 52.04 77 81.08 77 111 C46.64 111 16.28 111 -15 111 C-15.28076167 87.3625417 -15.28076167 87.3625417 -15.34179688 77.265625 C-15.38359896 70.38307798 -15.43298178 63.50118452 -15.52807617 56.61914062 C-15.60428639 51.06885125 -15.64602237 45.51926292 -15.6641407 39.9684906 C-15.67704775 37.85376452 -15.70225312 35.73907564 -15.7401104 33.62464905 C-15.79113779 30.65583224 -15.7979151 27.68988981 -15.79467773 24.72070312 C-15.81984467 23.85179443 -15.8450116 22.98288574 -15.87094116 22.08764648 C-15.79910876 15.97569007 -13.99481181 12.98262123 -9.74096775 8.63408661 C-9.16644839 8.09483803 -8.59192904 7.55558945 -8 7 C-7.19691406 6.236875 -6.39382812 5.47375 -5.56640625 4.6875 C-4.57447266 3.8521875 -4.57447266 3.8521875 -3.5625 3 C-2.88316406 2.4225 -2.20382813 1.845 -1.50390625 1.25 C-1.00761719 0.8375 -0.51132812 0.425 0 0 Z " fill="#0A69AC" transform="translate(55,212)"/>
<path d="M0 0 C0.33 0 0.66 0 1 0 C1 19.8 1 39.6 1 60 C93.07 59.505 93.07 59.505 187 59 C187 58.34 187 57.68 187 57 C185.68 56.67 184.36 56.34 183 56 C183 55.01 183 54.02 183 53 C185.86724686 53.57344937 186.8614515 53.8614515 189 56 C189 57.65 189 59.3 189 61 C126.63 61 64.26 61 0 61 C0 40.87 0 20.74 0 0 Z " fill="#0F86D9" transform="translate(41,67)"/>
<path d="M0 0 C1.32 0 2.64 0 4 0 C4.06950398 11.77853486 4.1228134 23.55702095 4.15543652 35.33571911 C4.17109381 40.80502248 4.19233345 46.27418557 4.22631836 51.7434082 C4.25890923 57.02130322 4.27685254 62.29906328 4.28463173 67.57705116 C4.2901757 69.59089597 4.30100167 71.60473337 4.31719017 73.61852074 C4.33896065 76.43879547 4.34196706 79.2585122 4.34057617 82.07885742 C4.351362 82.91179825 4.36214783 83.74473907 4.3732605 84.60292053 C4.34876989 89.19082849 4.04940105 92.30654604 1 96 C0.34 96 -0.32 96 -1 96 C-1.35964844 96.82951172 -1.35964844 96.82951172 -1.7265625 97.67578125 C-3.29249012 100.53383932 -5.21011179 102.7528998 -7.375 105.1875 C-8.53128906 106.50814453 -8.53128906 106.50814453 -9.7109375 107.85546875 C-11.94274711 109.94636206 -13.02011966 110.65302763 -16 111 C-15.21366078 109.85050412 -14.42073742 108.70551011 -13.625 107.5625 C-13.18414062 106.92441406 -12.74328125 106.28632813 -12.2890625 105.62890625 C-11 104 -11 104 -9 103 C-8.2575 101.7315625 -8.2575 101.7315625 -7.5 100.4375 C-7.005 99.633125 -6.51 98.82875 -6 98 C-5.34 98 -4.68 98 -4 98 C-3.731875 97.4225 -3.46375 96.845 -3.1875 96.25 C-2 94 -2 94 -0.45280457 92.39263916 C1.67452489 88.88911785 1.43943979 85.44895185 1.43237305 81.46777344 C1.4425647 80.60887512 1.45275635 79.74997681 1.46325684 78.86505127 C1.49341985 76.02975978 1.50265782 73.19480595 1.51171875 70.359375 C1.52856298 68.39209874 1.54671288 66.42483325 1.56611633 64.45758057 C1.61365018 59.2823829 1.6434377 54.10722893 1.66955566 48.93188477 C1.69934406 43.64981454 1.74588031 38.36789494 1.79101562 33.0859375 C1.87708728 22.72403707 1.94441545 12.36210567 2 2 C1.34 2 0.68 2 0 2 C0 1.34 0 0.68 0 0 Z " fill="#003965" transform="translate(328,38)"/>
<path d="M0 0 C1.98 0.66 3.96 1.32 6 2 C6 2.66 6 3.32 6 4 C6.556875 4.226875 7.11375 4.45375 7.6875 4.6875 C10 6 10 6 12.375 8.4375 C15.10738779 11.10483094 17.58322441 12.36588994 21 14 C22.875 15.5625 22.875 15.5625 24 17 C24 17.66 24 18.32 24 19 C24.99 19.309375 24.99 19.309375 26 19.625 C31.2036018 22.00998416 36.2080087 25.67807202 40 30 C40 30.66 40 31.32 40 32 C40.66 32 41.32 32 42 32 C42.33 32.99 42.66 33.98 43 35 C46.29311202 36.64655601 49.95883412 36.1806167 53.58056641 36.20532227 C54.46843338 36.21522186 55.35630035 36.22512146 56.27107239 36.23532104 C59.21454169 36.26698388 62.15802715 36.29171237 65.1015625 36.31640625 C67.13895087 36.33697165 69.17633494 36.35796801 71.2137146 36.37937927 C76.5829317 36.43464273 81.95218757 36.48403314 87.32147217 36.53222656 C92.79768333 36.58241041 98.27383799 36.63811272 103.75 36.69335938 C114.49995177 36.80099321 125.24995254 36.90242656 136 37 C136 37.33 136 37.66 136 38 C123.81315223 38.13892843 111.62649235 38.24558498 99.43901443 38.31087303 C93.78002229 38.3422059 88.12157129 38.38471542 82.46289062 38.45263672 C77.00341209 38.51775801 71.54445451 38.5536913 66.08461761 38.56926346 C64.00010727 38.58036271 61.91562593 38.60203706 59.83133698 38.63438034 C56.91459722 38.67784732 54.00001855 38.68393816 51.08300781 38.68115234 C50.21841949 38.702724 49.35383118 38.72429565 48.46304321 38.746521 C46.15360992 38.72260402 44.21618352 38.65235954 42 38 C39.57293701 35.04336548 39.57293701 35.04336548 38 32 C35.89960669 30.61131484 35.89960669 30.61131484 34 30 C34 29.34 34 28.68 34 28 C32.02 27.67 30.04 27.34 28 27 C27.67 25.68 27.34 24.36 27 23 C26.13375 22.9071875 26.13375 22.9071875 25.25 22.8125 C22.12419715 21.68373786 21.01847182 19.58616702 19 17 C16.88339573 15.68834743 16.88339573 15.68834743 15 15 C15 14.34 15 13.68 15 13 C13.68 12.67 12.36 12.34 11 12 C11 11.34 11 10.68 11 10 C10.01 9.67 9.02 9.34 8 9 C8 8.34 8 7.68 8 7 C7.01 6.67 6.02 6.34 5 6 C4.67 5.34 4.34 4.68 4 4 C3.01 3.67 2.02 3.34 1 3 C0.67 2.01 0.34 1.02 0 0 Z " fill="#03538D" transform="translate(192,286)"/>
<path d="M0 0 C0.33 0 0.66 0 1 0 C1.13923572 11.33545027 1.24574079 22.67069593 1.31087303 34.00682831 C1.34213909 39.27113628 1.38452582 44.5348577 1.45263672 49.79882812 C1.51799744 54.88226558 1.55374158 59.96514012 1.56926346 65.04896545 C1.58031982 66.98503985 1.60191087 68.92108465 1.63438034 70.85691833 C1.6781669 73.57650465 1.683925 76.29378781 1.68115234 79.01367188 C1.702724 79.80777466 1.72429565 80.60187744 1.746521 81.42004395 C1.67763532 87.6959577 -0.6612013 91.52988715 -5 96 C-6.485 96.99 -6.485 96.99 -8 98 C-8.28875 98.598125 -8.5775 99.19625 -8.875 99.8125 C-10.41084758 102.79887029 -12.57590383 104.68865249 -15 107 C-15.845625 107.845625 -16.69125 108.69125 -17.5625 109.5625 C-19.03158241 111.03158241 -20.52520327 112.47745751 -22.0625 113.875 C-24.21283557 116.05464987 -24.21283557 116.05464987 -25.8125 119.4375 C-28.04311746 123.59415261 -31.05881568 125.4988638 -35 128 C-33.25 124.125 -33.25 124.125 -31 123 C-29.90287919 121.17809731 -28.86908033 119.31760845 -27.875 117.4375 C-27.06675781 115.91962891 -27.06675781 115.91962891 -26.2421875 114.37109375 C-25.83226562 113.58863281 -25.42234375 112.80617188 -25 112 C-24.01 112 -23.02 112 -22 112 C-21.731875 111.38125 -21.46375 110.7625 -21.1875 110.125 C-20 108 -20 108 -17 106 C-16.28272222 104.35448038 -15.61674772 102.68577711 -15 101 C-13 98 -13 98 -10 97 C-8.37628498 95.43918026 -8.37628498 95.43918026 -6.875 93.5625 C-6.35679687 92.94503906 -5.83859375 92.32757813 -5.3046875 91.69140625 C-3.93159716 90.02334668 -3.93159716 90.02334668 -3 88 C-2.34 88 -1.68 88 -1 88 C-0.67 58.96 -0.34 29.92 0 0 Z " fill="#096DB7" transform="translate(329,40)"/>
<path d="M0 0 C0.495 0.99 0.495 0.99 1 2 C0.34 2.33 -0.32 2.66 -1 3 C-1.72075885 4.73637359 -2.4403604 6.47326017 -3.1484375 8.21484375 C-4.33500492 10.70228096 -5.87436784 12.27292387 -8 14 C-8.99 14.33 -9.98 14.66 -11 15 C-12.43360985 16.63800001 -13.79964373 18.33573655 -15.125 20.0625 C-18.77861436 24.67287098 -22.56672656 28.47670875 -27.15234375 32.1484375 C-29.30046182 34.30109705 -29.88806468 36.19246983 -31 39 C-33.0234375 41.45703125 -33.0234375 41.45703125 -35.375 43.8125 C-36.14585938 44.60269531 -36.91671875 45.39289063 -37.7109375 46.20703125 C-40 48 -40 48 -44 48 C-42.87155237 44.61465712 -41.47452802 43.68627951 -38.7578125 41.52734375 C-34.59409184 37.90953313 -31.05192163 33.57788244 -28 29 C-27.34 29 -26.68 29 -26 29 C-25.64421875 28.1646875 -25.64421875 28.1646875 -25.28125 27.3125 C-23.17135835 23.50440287 -20.05935991 20.59568198 -17.09375 17.4375 C-14.96244994 15.16536122 -14.96244994 15.16536122 -13.90625 12.75 C-13 11 -13 11 -10 10 C-7.95651332 8.29709443 -6.87512188 6.77739117 -5.5625 4.4375 C-3.89885911 1.84222021 -2.83235875 1.07434297 0 0 Z " fill="#0A77C6" transform="translate(108,155)"/>
<path d="M0 0 C5.19100171 1.03820034 7.20418002 2.56016538 10.8125 6.0625 C11.56563477 6.77116211 11.56563477 6.77116211 12.33398438 7.49414062 C13.56422789 8.65408452 14.78327065 9.82588815 16 11 C12.66843858 11 10.93971885 10.54335239 8 9 C6.9590934 7.35857037 5.95495674 5.69287785 5 4 C4.01 3.67 3.02 3.34 2 3 C2.00261841 3.62723969 2.00523682 4.25447937 2.00793457 4.90072632 C2.07286467 23.14793486 1.8417963 41.38133564 1.5 59.625 C1.45134514 62.30077271 1.40339983 64.97655799 1.35546875 67.65234375 C1.23941737 74.10160876 1.1207904 80.5508221 1 87 C0.67 87 0.34 87 0 87 C0 58.29 0 29.58 0 0 Z " fill="#013F6F" transform="translate(132,235)"/>
<path d="M0 0 C0.66 0.33 1.32 0.66 2 1 C1.236875 1.721875 0.47375 2.44375 -0.3125 3.1875 C-2.75058134 5.73898048 -4.23482111 7.98448606 -6 11 C-7.57553423 13.1242027 -9.21666861 15.03376282 -11 17 C-11.66 17 -12.32 17 -13 17 C-13 17.66 -13 18.32 -13 19 C-13.66 19.33 -14.32 19.66 -15 20 C-15.495 21.2375 -15.495 21.2375 -16 22.5 C-17 25 -17 25 -19 26 C-19.33 55.37 -19.66 84.74 -20 115 C-20.33 115 -20.66 115 -21 115 C-21.13929422 103.42104962 -21.24577042 91.84230003 -21.31087303 80.26268101 C-21.34212634 74.88518649 -21.38448976 69.50826709 -21.45263672 64.13110352 C-21.51804289 58.93743714 -21.55375114 53.74432239 -21.56926346 48.5502758 C-21.58031168 46.57316344 -21.60188665 44.59607977 -21.63438034 42.61920357 C-21.92868986 23.96430516 -21.92868986 23.96430516 -16.58486938 17.24571228 C-15 16 -15 16 -12 16 C-11.731875 15.401875 -11.46375 14.80375 -11.1875 14.1875 C-10 12 -10 12 -8.5625 10.625 C-6.77807237 8.93917635 -6.77807237 8.93917635 -5.5625 6 C-3.99779644 2.99576916 -2.83124401 1.75732387 0 0 Z " fill="#0B86DA" transform="translate(62,205)"/>
<path d="M0 0 C0.66 0 1.32 0 2 0 C0.31981497 3.78271165 -2.06057893 6.98132291 -4.5625 10.25 C-5.22197632 11.11443726 -5.22197632 11.11443726 -5.89477539 11.99633789 C-9.26432936 16.3025832 -12.97576133 19.80669811 -17.18359375 23.3046875 C-19.23334573 25.01590449 -19.23334573 25.01590449 -20.5 28.0625 C-22.48322716 31.94631986 -25.24635307 33.65819325 -28.72265625 36.19921875 C-31.45557091 38.36023703 -33.47533233 40.78707511 -35.6484375 43.48828125 C-37.48084856 45.53782772 -39.55650035 46.77825018 -42 48 C-40.43068387 44.14804223 -37.94959682 41.88256053 -35 39 C-33.42010539 37.13673363 -31.86746202 35.25551368 -30.33203125 33.35546875 C-29.67267578 32.68451172 -29.67267578 32.68451172 -29 32 C-28.34 32 -27.68 32 -27 32 C-26.773125 31.443125 -26.54625 30.88625 -26.3125 30.3125 C-24.64123288 27.3678865 -22.39147596 25.39147596 -20 23 C-19.319375 21.96875 -18.63875 20.9375 -17.9375 19.875 C-16.10997951 17.16319541 -14.59368353 15.87818463 -12 14 C-11.67 13.01 -11.34 12.02 -11 11 C-9.2578125 9.5703125 -9.2578125 9.5703125 -7.125 8.125 C-3.78694673 5.74067623 -1.93909124 3.66272791 0 0 Z " fill="#03477C" transform="translate(286,176)"/>
<path d="M0 0 C0.33 0 0.66 0 1 0 C1 28.71 1 57.42 1 87 C-5 86 -5 86 -6.6875 84 C-7.120625 83.34 -7.55375 82.68 -8 82 C-8.99 81.67 -9.98 81.34 -11 81 C-12.51472274 78.72791589 -13.78009593 76.43980815 -15 74 C-10.74550664 75.49482199 -8.05083745 76.8983251 -6 81 C-4.35 81.66 -2.7 82.32 -1 83 C-0.67 55.61 -0.34 28.22 0 0 Z " fill="#002649" transform="translate(235,39)"/>
<path d="M0 0 C1.98 0 3.96 0 6 0 C6 33.33 6 66.66 6 101 C5.67 101 5.34 101 5 101 C5 68.99 5 36.98 5 4 C3.02 4.99 1.04 5.98 -1 7 C-0.67 4.69 -0.34 2.38 0 0 Z " fill="#0862A3" transform="translate(126,129)"/>
<path d="M0 0 C0.66 0 1.32 0 2 0 C3.125 6.625 3.125 6.625 2 10 C1.9154613 12.4410776 1.88394214 14.85259213 1.90234375 17.29296875 C1.9037587 17.99899734 1.90517365 18.70502594 1.90663147 19.43244934 C1.91222236 21.68417626 1.92477312 23.93580321 1.9375 26.1875 C1.94251618 27.71549335 1.94707888 29.24348827 1.95117188 30.77148438 C1.9621888 34.51436135 1.97944713 38.25716373 2 42 C2.99 42.33 3.98 42.66 5 43 C6.05619003 47.28297531 6.11702092 51.42985646 6.0625 55.8125 C6.05798828 56.50537109 6.05347656 57.19824219 6.04882812 57.91210938 C6.03713156 59.60811068 6.01919924 61.30406703 6 63 C5.67 63 5.34 63 5 63 C5 59.04 5 55.08 5 51 C4.34 51 3.68 51 3 51 C2.67 53.64 2.34 56.28 2 59 C-0.25779693 55.6133046 -0.24486783 54.48309149 -0.22705078 50.51879883 C-0.22689972 49.39786331 -0.22674866 48.2769278 -0.22659302 47.12202454 C-0.21627045 45.91257675 -0.20594788 44.70312897 -0.1953125 43.45703125 C-0.1924826 42.21829758 -0.18965271 40.9795639 -0.18673706 39.70329285 C-0.17743186 36.41361913 -0.15946791 33.12414137 -0.1373291 29.83453369 C-0.1168527 26.47630206 -0.10773152 23.11804172 -0.09765625 19.75976562 C-0.07558271 13.17310027 -0.04209522 6.58656617 0 0 Z " fill="#0887E4" transform="translate(239,69)"/>
<path d="M0 0 C1.60875 0.928125 1.60875 0.928125 3.25 1.875 C5.79780984 3.3323679 8.35259355 4.72924491 11 6 C11 6.66 11 7.32 11 8 C11.5775 8.226875 12.155 8.45375 12.75 8.6875 C15 10 15 10 16.9375 12.5 C19.21610911 15.26195044 20.70257839 15.81631019 24 17 C25.8125 18.5 25.8125 18.5 27 20 C27 20.66 27 21.32 27 22 C27.57621094 22.28230469 28.15242188 22.56460938 28.74609375 22.85546875 C39.35465543 28.24248534 39.35465543 28.24248534 42 34 C42.33 34.66 42.66 35.32 43 36 C39.22222222 34.48888889 39.22222222 34.48888889 38.0625 31.9375 C37.5365625 30.9784375 37.5365625 30.9784375 37 30 C35.33499557 29.65846063 33.66821323 29.32550502 32 29 C30.375 27 30.375 27 29 25 C28.01 24.67 27.02 24.34 26 24 C26 23.34 26 22.68 26 22 C24.68 21.34 23.36 20.68 22 20 C22 19.34 22 18.68 22 18 C20.35 17.34 18.7 16.68 17 16 C17 15.34 17 14.68 17 14 C16.1028125 13.8453125 16.1028125 13.8453125 15.1875 13.6875 C12.68741714 12.90175967 11.62464918 12.03081147 10 10 C10 9.34 10 8.68 10 8 C9.4225 7.71125 8.845 7.4225 8.25 7.125 C6.16666667 6.08333333 4.08333333 5.04166667 2 4 C2 3.34 2 2.68 2 2 C1.34 2 0.68 2 0 2 C0 1.34 0 0.68 0 0 Z " fill="#0A68AC" transform="translate(181,82)"/>
<path d="M0 0 C1.98 0.66 3.96 1.32 6 2 C6 2.66 6 3.32 6 4 C6.556875 4.226875 7.11375 4.45375 7.6875 4.6875 C10.65239972 6.37028092 12.616515 8.56108512 15 11 C16.79716848 12.54821008 18.61535377 14.0658113 20.44921875 15.5703125 C22 17 22 17 24 20 C25.65365406 21.02137457 27.32376502 22.01612294 29 23 C36.70348837 28.40697674 36.70348837 28.40697674 38 31 C36.68 30.67 35.36 30.34 34 30 C34 29.34 34 28.68 34 28 C32.02 27.67 30.04 27.34 28 27 C27.67 25.68 27.34 24.36 27 23 C26.13375 22.9071875 26.13375 22.9071875 25.25 22.8125 C22.12419715 21.68373786 21.01847182 19.58616702 19 17 C16.88339573 15.68834743 16.88339573 15.68834743 15 15 C15 14.34 15 13.68 15 13 C13.68 12.67 12.36 12.34 11 12 C11 11.34 11 10.68 11 10 C10.01 9.67 9.02 9.34 8 9 C8 8.34 8 7.68 8 7 C7.01 6.67 6.02 6.34 5 6 C4.67 5.34 4.34 4.68 4 4 C3.01 3.67 2.02 3.34 1 3 C0.67 2.01 0.34 1.02 0 0 Z " fill="#013968" transform="translate(192,286)"/>
<path d="M0 0 C0.33 0.66 0.66 1.32 1 2 C0.01 2.495 0.01 2.495 -1 3 C-1.72225311 4.73997341 -2.44392928 6.48019363 -3.16015625 8.22265625 C-4.87254703 11.84655301 -7.15691289 13.62780499 -10.76953125 15.22265625 C-14.63890138 17.35151164 -17.0126184 19.88564948 -19.875 23.1875 C-20.37257813 23.74630859 -20.87015625 24.30511719 -21.3828125 24.88085938 C-22.59680732 26.24660354 -23.79958756 27.62230245 -25 29 C-25 24.74042503 -23.02901599 23.59402943 -20.125 20.5625 C-16.56501358 16.94587237 -16.56501358 16.94587237 -13.8671875 12.71484375 C-13 11 -13 11 -10 10 C-7.95651332 8.29709443 -6.87512188 6.77739117 -5.5625 4.4375 C-3.89885911 1.84222021 -2.83235875 1.07434297 0 0 Z " fill="#0974C2" transform="translate(108,155)"/>
<path d="M0 0 C0.66 0.33 1.32 0.66 2 1 C0.39163804 3.96277203 -1.13420004 6.13092686 -3.5625 8.5 C-5.97781863 10.97724988 -6.97543604 12.74002375 -8 16 C-8.99 16 -9.98 16 -11 16 C-11.23460937 16.59296875 -11.46921875 17.1859375 -11.7109375 17.796875 C-13.29895425 20.51094 -14.97602884 21.58493241 -17.625 23.25 C-18.44226563 23.77078125 -19.25953125 24.2915625 -20.1015625 24.828125 C-21.04128906 25.40820312 -21.04128906 25.40820312 -22 26 C-19.70264988 21.06069724 -16.29802938 18.00056432 -12 14.6875 C-8.91413737 12.18716002 -7.1553207 9.27338883 -5.16796875 5.87109375 C-3.73409982 3.57402613 -2.0188624 1.79454436 0 0 Z " fill="#023B69" transform="translate(310,150)"/>
<path d="M0 0 C1.32 0.33 2.64 0.66 4 1 C4 1.66 4 2.32 4 3 C4.86625 3.37125 4.86625 3.37125 5.75 3.75 C8.32939979 5.18299988 10.06121592 6.78424676 12 9 C12 9.66 12 10.32 12 11 C12.58265625 11.26554687 13.1653125 11.53109375 13.765625 11.8046875 C16.06174228 13.03302996 17.80356018 14.40314939 19.75 16.125 C20.36359375 16.66382813 20.9771875 17.20265625 21.609375 17.7578125 C22.06828125 18.16773438 22.5271875 18.57765625 23 19 C22.34 19.33 21.68 19.66 21 20 C18.96855359 19.06553465 16.96466413 18.06775224 15 17 C15 16.34 15 15.68 15 15 C14.34 15 13.68 15 13 15 C13 14.34 13 13.68 13 13 C12.13375 12.62875 12.13375 12.62875 11.25 12.25 C8.67060021 10.81700012 6.93878408 9.21575324 5 7 C5 6.34 5 5.68 5 5 C3.35 4.67 1.7 4.34 0 4 C0 2.68 0 1.36 0 0 Z " fill="#023662" transform="translate(148,247)"/>
<path d="M0 0 C0 0.66 0 1.32 0 2 C-0.66 2 -1.32 2 -2 2 C-2.185625 2.70125 -2.37125 3.4025 -2.5625 4.125 C-4.52067514 8.04135028 -7.40676231 10.5338864 -11 13 C-11.66 13 -12.32 13 -13 13 C-13.061875 13.5775 -13.12375 14.155 -13.1875 14.75 C-14.3176876 17.87975028 -16.41017692 18.96513901 -19 21 C-20.01656081 22.65661761 -21.02065076 24.32111559 -22 26 C-22.66 26 -23.32 26 -24 26 C-24 25.34 -24 24.68 -24 24 C-23.34 23.67 -22.68 23.34 -22 23 C-21.27840576 21.35636866 -20.60648579 19.68949614 -20 18 C-19.34 18 -18.68 18 -18 18 C-18 17.34 -18 16.68 -18 16 C-17.34 16 -16.68 16 -16 16 C-16 15.01 -16 14.02 -16 13 C-15.10861328 12.61134766 -15.10861328 12.61134766 -14.19921875 12.21484375 C-11.84061893 10.91195824 -10.53317412 9.61934696 -8.8125 7.5625 C-8.30332031 6.96566406 -7.79414063 6.36882812 -7.26953125 5.75390625 C-5.80508193 3.91540181 -5.80508193 3.91540181 -5 1 C-2 0 -2 0 0 0 Z " fill="#0B80D5" transform="translate(288,174)"/>
<path d="M0 0 C2.3125 -0.3125 2.3125 -0.3125 5 0 C6.02137457 1.65365406 7.01612294 3.32376502 8 5 C9.950554 6.64257179 11.9747425 8.10730061 14.0625 9.5703125 C15.91259229 10.93550157 17.49607679 12.26108878 19 14 C19 14.66 19 15.32 19 16 C19.66 16 20.32 16 21 16 C21 16.66 21 17.32 21 18 C17.4134946 16.66786942 14.12317517 15.23083941 11 13 C11 12.01 11 11.02 11 10 C10.236875 9.773125 9.47375 9.54625 8.6875 9.3125 C5.40283882 7.70836315 4.70081859 6.16970738 3 3 C1.41754725 1.24850835 1.41754725 1.24850835 0 0 Z " fill="#0A6DB5" transform="translate(133,40)"/>
<path d="M0 0 C0.66 0 1.32 0 2 0 C2 5.28 2 10.56 2 16 C1.01 16.33 0.02 16.66 -1 17 C-1.66 17.99 -2.32 18.98 -3 20 C-3.05397335 17.5622037 -3.09365616 15.12560315 -3.125 12.6875 C-3.14175781 11.99720703 -3.15851563 11.30691406 -3.17578125 10.59570312 C-3.21217794 6.82864604 -3.14378864 5.21568296 -1 2 C-0.67 1.34 -0.34 0.68 0 0 Z " fill="#0477CC" transform="translate(242,120)"/>
<path d="M0 0 C5.30197044 1.06039409 6.53194489 1.9835745 10.3125 5.5625 C11.19550781 6.38878906 12.07851562 7.21507812 12.98828125 8.06640625 C13.65214844 8.70449219 14.31601563 9.34257812 15 10 C11.66843858 10 9.93971885 9.54335239 7 8 C5.9590934 6.35857037 4.95495674 4.69287785 4 3 C3.01 2.67 2.02 2.34 1 2 C1 10.58 1 19.16 1 28 C0.67 28 0.34 28 0 28 C0 18.76 0 9.52 0 0 Z " fill="#00284B" transform="translate(133,236)"/>
<path d="M0 0 C4.41299538 1.20354419 7.08112557 2.43248681 10 6 C10.33 6.99 10.66 7.98 11 9 C11.78375 9.103125 12.5675 9.20625 13.375 9.3125 C16 10 16 10 18 13 C18.99 13.33 19.98 13.66 21 14 C21.6875 16.0625 21.6875 16.0625 22 18 C21.34 18 20.68 18 20 18 C20 17.34 20 16.68 20 16 C19.15115234 15.85691406 19.15115234 15.85691406 18.28515625 15.7109375 C15.4703361 14.83521568 13.73296241 13.46603077 11.4375 11.625 C10.67308594 11.01914063 9.90867188 10.41328125 9.12109375 9.7890625 C5.33630793 6.59673855 5.33630793 6.59673855 4 5 C4 4.01 4 3.02 4 2 C2.68 1.67 1.36 1.34 0 1 C0 0.67 0 0.34 0 0 Z " fill="#024171" transform="translate(172,72)"/>
<path d="M0 0 C1.125 3.75 1.125 3.75 0 6 C-0.66 6 -1.32 6 -2 6 C-2.35964844 6.82951172 -2.35964844 6.82951172 -2.7265625 7.67578125 C-4.29249012 10.53383932 -6.21011179 12.7528998 -8.375 15.1875 C-9.14585937 16.06792969 -9.91671875 16.94835937 -10.7109375 17.85546875 C-12.94274711 19.94636206 -14.02011966 20.65302763 -17 21 C-16.21366078 19.85050412 -15.42073742 18.70551011 -14.625 17.5625 C-14.18414062 16.92441406 -13.74328125 16.28632813 -13.2890625 15.62890625 C-12 14 -12 14 -10 13 C-9.505 12.154375 -9.01 11.30875 -8.5 10.4375 C-8.005 9.633125 -7.51 8.82875 -7 8 C-6.34 8 -5.68 8 -5 8 C-4.731875 7.4225 -4.46375 6.845 -4.1875 6.25 C-2.98280141 3.9674132 -1.59201885 2.0262058 0 0 Z " fill="#024073" transform="translate(329,128)"/>
<path d="M0 0 C0.66 0.33 1.32 0.66 2 1 C-3 6 -3 6 -5.0625 7.875 C-7.21283557 10.05464987 -7.21283557 10.05464987 -8.8125 13.4375 C-11.04311746 17.59415261 -14.05881568 19.4988638 -18 22 C-16.25 18.125 -16.25 18.125 -14 17 C-12.90287919 15.17809731 -11.86908033 13.31760845 -10.875 11.4375 C-10.33617187 10.42558594 -9.79734375 9.41367188 -9.2421875 8.37109375 C-8.62730469 7.19740234 -8.62730469 7.19740234 -8 6 C-7.01 6 -6.02 6 -5 6 C-4.731875 5.38125 -4.46375 4.7625 -4.1875 4.125 C-3 2 -3 2 0 0 Z " fill="#0A74C1" transform="translate(312,146)"/>
<path d="M0 0 C8.41803279 0.97131148 8.41803279 0.97131148 11 3 C12.05047644 5.31104818 13.05007438 7.64583651 14 10 C15.53951047 11.88029239 15.53951047 11.88029239 17 13 C16.01 13 15.02 13 14 13 C12.67578125 11.64453125 12.67578125 11.64453125 11.3125 9.8125 C8.46579277 6.27742024 5.46808548 4.16734422 1.5390625 1.9453125 C1.03117188 1.63335937 0.52328125 1.32140625 0 1 C0 0.67 0 0.34 0 0 Z " fill="#023F70" transform="translate(154,58)"/>
<path d="M0 0 C0.66 0.33 1.32 0.66 2 1 C1.48050781 1.43570313 0.96101563 1.87140625 0.42578125 2.3203125 C-7.38757014 8.99271239 -11.61182676 13.5161842 -13 24 C-13.33 24 -13.66 24 -14 24 C-14.08153933 22.41753293 -14.13943557 20.83383727 -14.1875 19.25 C-14.22230469 18.36828125 -14.25710937 17.4865625 -14.29296875 16.578125 C-13.94474302 13.51373854 -12.97972267 12.30967645 -11 10 C-10.566875 9.154375 -10.13375 8.30875 -9.6875 7.4375 C-7.55929367 4.36342419 -5.37113625 3.50625237 -2 2 C-1.34 1.34 -0.68 0.68 0 0 Z " fill="#012F55" transform="translate(52,213)"/>
<path d="M0 0 C0.33 0.99 0.66 1.98 1 3 C0.21753906 3.84304687 -0.56492187 4.68609375 -1.37109375 5.5546875 C-2.39334825 6.66134834 -3.41547716 7.76812521 -4.4375 8.875 C-4.95376953 9.43058594 -5.47003906 9.98617187 -6.00195312 10.55859375 C-8.82104736 13.54749315 -8.82104736 13.54749315 -11 17 C-11.66 17 -12.32 17 -13 17 C-13.2475 17.598125 -13.495 18.19625 -13.75 18.8125 C-15.16370012 21.28647521 -16.65055383 22.43370255 -19 24 C-19 21 -19 21 -16.9375 18.8125 C-16.48761719 18.38839844 -16.03773437 17.96429688 -15.57421875 17.52734375 C-13.70823974 15.71692739 -11.97833453 13.81714911 -10.25 11.875 C-9.65703125 11.21242187 -9.0640625 10.54984375 -8.453125 9.8671875 C-6.80100363 7.95816621 -6.80100363 7.95816621 -6 5 C-4.67532254 4.3162955 -3.34136367 3.65035814 -2 3 C-1.34 2.01 -0.68 1.02 0 0 Z " fill="#023B6B" transform="translate(93,167)"/>
<path d="M0 0 C13.86 0.495 13.86 0.495 28 1 C28 1.33 28 1.66 28 2 C21.07 2 14.14 2 7 2 C7 3.65 7 5.3 7 7 C4.69 6.01 2.38 5.02 0 4 C0 2.68 0 1.36 0 0 Z " fill="#0D6CB3" transform="translate(132,231)"/>
<path d="M0 0 C0.66 0.33 1.32 0.66 2 1 C1.236875 1.721875 0.47375 2.44375 -0.3125 3.1875 C-2.75058134 5.73898048 -4.23482111 7.98448606 -6 11 C-7.57553423 13.1242027 -9.21666861 15.03376282 -11 17 C-11.66 17 -12.32 17 -13 17 C-13 17.66 -13 18.32 -13 19 C-14.65 19.66 -16.3 20.32 -18 21 C-16.6875 18.5 -16.6875 18.5 -15 16 C-14.01 16 -13.02 16 -12 16 C-11.731875 15.401875 -11.46375 14.80375 -11.1875 14.1875 C-10 12 -10 12 -8.5625 10.625 C-6.77807237 8.93917635 -6.77807237 8.93917635 -5.5625 6 C-3.99779644 2.99576916 -2.83124401 1.75732387 0 0 Z " fill="#0B7DCB" transform="translate(62,205)"/>
<path d="M0 0 C0.66 0 1.32 0 2 0 C0.2964433 3.8708594 -2.19022657 7.10446168 -4.75 10.4375 C-5.16765625 10.99759766 -5.5853125 11.55769531 -6.015625 12.13476562 C-8.98333404 16.01178796 -12.15333789 18.99128037 -16 22 C-15.61121002 19.18127263 -15.29189635 18.22804402 -13 16.4375 C-12.34 15.963125 -11.68 15.48875 -11 15 C-10.67 14.01 -10.34 13.02 -10 12 C-8.33333333 10.33333333 -6.66666667 8.66666667 -5 7 C-4.08346853 5.74401243 -3.1875135 4.47275721 -2.3125 3.1875 C-1.549375 2.135625 -0.78625 1.08375 0 0 Z " fill="#013C6A" transform="translate(286,176)"/>
<path d="M0 0 C1.32 0 2.64 0 4 0 C4 1.32 4 2.64 4 4 C0.78571429 7 0.78571429 7 -2 7 C-2.28875 7.639375 -2.5775 8.27875 -2.875 8.9375 C-4 11 -4 11 -6 12 C-5.625 9.5625 -5.625 9.5625 -5 7 C-4.34 6.67 -3.68 6.34 -3 6 C-2.29788106 4.34795544 -1.63028587 2.68076231 -1 1 C-0.67 0.67 -0.34 0.34 0 0 Z " fill="#013763" transform="translate(60,201)"/>
<path d="M0 0 C3.54433654 1.41773462 4.33806119 2.67612238 6 6 C6.928125 6.4640625 6.928125 6.4640625 7.875 6.9375 C10.73797489 8.36898744 12.12430451 10.45441327 14 13 C8.54850703 11.70202548 5.39999353 9.31862532 2 5 C0.625 2.125 0.625 2.125 0 0 Z " fill="#04487B" transform="translate(178,272)"/>
<path d="M0 0 C0 3.92709135 -1.27900462 4.8189713 -3.875 7.6875 C-4.95394531 8.89986328 -4.95394531 8.89986328 -6.0546875 10.13671875 C-8 12 -8 12 -10 12 C-10 12.66 -10 13.32 -10 14 C-10.99 14.33 -11.98 14.66 -13 15 C-12.1875 12.5625 -12.1875 12.5625 -11 10 C-10.01 9.67 -9.02 9.34 -8 9 C-8 8.34 -8 7.68 -8 7 C-5.47107279 4.26602464 -3.10404867 2.06936578 0 0 Z " fill="#0966AE" transform="translate(122,140)"/>
<path d="M0 0 C0.99 0.33 1.98 0.66 3 1 C1.0884066 3.27527705 -0.82895768 5.54522331 -2.75 7.8125 C-3.28882812 8.45509766 -3.82765625 9.09769531 -4.3828125 9.75976562 C-7.04551111 12.89330729 -9.52373743 15.73030429 -13 18 C-11.007945 13.32300131 -7.53100137 10.09794951 -4.09375 6.4375 C-2.27427775 4.31930843 -1.08541507 2.54836582 0 0 Z " fill="#075A98" transform="translate(95,166)"/>
<path d="M0 0 C12.24227528 5.99789326 12.24227528 5.99789326 15 12 C15.33 12.66 15.66 13.32 16 14 C12.22222222 12.48888889 12.22222222 12.48888889 11.0625 9.9375 C10.711875 9.298125 10.36125 8.65875 10 8 C9.236875 7.896875 8.47375 7.79375 7.6875 7.6875 C3.55680136 6.63080965 2.14999608 3.50403616 0 0 Z " fill="#05508A" transform="translate(208,104)"/>
<path d="M0 0 C0.33 0.66 0.66 1.32 1 2 C-2.30463201 6.57564432 -5.95598915 9.47799457 -11 12 C-8.84618556 6.71336455 -4.57763162 3.22129633 0 0 Z " fill="#034371" transform="translate(299,164)"/>
<path d="M0 0 C2.86724686 0.57344937 3.8614515 0.8614515 6 3 C6 4.65 6 6.3 6 8 C1.38 8 -3.24 8 -8 8 C-8 7.67 -8 7.34 -8 7 C-2.06 6.505 -2.06 6.505 4 6 C4 5.34 4 4.68 4 4 C2.68 3.67 1.36 3.34 0 3 C0 2.01 0 1.02 0 0 Z " fill="#1184D7" transform="translate(224,120)"/>
<path d="M0 0 C1.32 0 2.64 0 4 0 C4.474375 0.804375 4.94875 1.60875 5.4375 2.4375 C6.76479918 5.25476709 6.76479918 5.25476709 9.6875 5.8125 C10.8321875 5.9053125 10.8321875 5.9053125 12 6 C12.33 7.65 12.66 9.3 13 11 C9.76306836 9.51516897 7.0674375 7.67292565 4.25 5.5 C3.45078125 4.8915625 2.6515625 4.283125 1.828125 3.65625 C1.22484375 3.1096875 0.6215625 2.563125 0 2 C0 1.34 0 0.68 0 0 Z " fill="#0D78C4" transform="translate(160,256)"/>
<path d="M0 0 C0.33 1.32 0.66 2.64 1 4 C0.34 4 -0.32 4 -1 4 C-1.33 4.99 -1.66 5.98 -2 7 C-3.25 8.6875 -3.25 8.6875 -5 10 C-7.6875 10.1875 -7.6875 10.1875 -10 10 C-10 9.01 -10 8.02 -10 7 C-9.0925 6.773125 -8.185 6.54625 -7.25 6.3125 C-3.55111676 4.81872023 -2.22094342 3.24599423 0 0 Z " fill="#013664" transform="translate(247,221)"/>
<path d="M0 0 C4.63720719 3.27530896 8.68542782 6.30435607 12 11 C7.57950955 9.7944117 4.88578023 8.60722528 2 5 C0.75 2.25 0.75 2.25 0 0 Z " fill="#023E6F" transform="translate(136,236)"/>
<path d="M0 0 C0 3.73928499 -0.91959602 4.40902253 -3.375 7.125 C-4.31472656 8.18074219 -4.31472656 8.18074219 -5.2734375 9.2578125 C-7 11 -7 11 -9 12 C-8.34 10.02 -7.68 8.04 -7 6 C-6.34 6 -5.68 6 -5 6 C-4.67 5.01 -4.34 4.02 -4 3 C-3.34 3 -2.68 3 -2 3 C-2 2.34 -2 1.68 -2 1 C-1.34 0.67 -0.68 0.34 0 0 Z " fill="#078CEA" transform="translate(114,151)"/>
<path d="M0 0 C1.98 0 3.96 0 6 0 C6 2.31 6 4.62 6 7 C5.67 6.01 5.34 5.02 5 4 C3.02 4.99 1.04 5.98 -1 7 C-0.67 4.69 -0.34 2.38 0 0 Z " fill="#07538C" transform="translate(126,129)"/>
<path d="M0 0 C1 2 1 2 0.3515625 4.32421875 C-1.22782824 7.45104724 -3.09925785 9.39500395 -5.625 11.8125 C-6.44226563 12.60269531 -7.25953125 13.39289063 -8.1015625 14.20703125 C-8.72804688 14.79871094 -9.35453125 15.39039063 -10 16 C-10 15.01 -10 14.02 -10 13 C-8.54939501 11.54939501 -7.09398513 10.10285801 -5.6015625 8.6953125 C-3.12955712 6.07860436 -1.65566907 3.18397897 0 0 Z " fill="#0A84DF" transform="translate(126,135)"/>
<path d="M0 0 C6.74049393 2.36828165 8.68226799 5.93655874 12 12 C11.34 12 10.68 12 10 12 C9.525625 11.360625 9.05125 10.72125 8.5625 10.0625 C7.0908635 7.71627037 7.0908635 7.71627037 4 7 C2.48527726 4.72791589 1.21990407 2.43980815 0 0 Z " fill="#013868" transform="translate(220,113)"/>
<path d="M0 0 C0 0.66 0 1.32 0 2 C-0.66 2 -1.32 2 -2 2 C-2.2475 2.763125 -2.495 3.52625 -2.75 4.3125 C-4.10995558 7.2364045 -5.31585826 8.30004356 -8 10 C-7.44739574 6.68437443 -6.83174295 3.84937793 -5 1 C-2 0 -2 0 0 0 Z " fill="#0B77C4" transform="translate(288,174)"/>
<path d="M0 0 C1.32 0.33 2.64 0.66 4 1 C4 1.66 4 2.32 4 3 C4.598125 3.2475 5.19625 3.495 5.8125 3.75 C8.28647521 5.16370012 9.43370255 6.65055383 11 9 C10.484375 8.731875 9.96875 8.46375 9.4375 8.1875 C6.33598585 6.67650593 3.17737194 5.34427274 0 4 C0 2.68 0 1.36 0 0 Z " fill="#044A80" transform="translate(148,247)"/>
<path d="M0 0 C0.66 0 1.32 0 2 0 C0.55575365 3.23861303 -1.25772247 5.61969163 -3.625 8.25 C-4.25664062 8.95640625 -4.88828125 9.6628125 -5.5390625 10.390625 C-6.02117187 10.92171875 -6.50328125 11.4528125 -7 12 C-7.33 11.34 -7.66 10.68 -8 10 C-7.21654285 8.82780457 -6.42297164 7.66236332 -5.625 6.5 C-5.18414062 5.8503125 -4.74328125 5.200625 -4.2890625 4.53125 C-3.86367188 4.0259375 -3.43828125 3.520625 -3 3 C-2.34 3 -1.68 3 -1 3 C-0.67 2.01 -0.34 1.02 0 0 Z " fill="#0C80D2" transform="translate(262,200)"/>
<path d="M0 0 C3.59147806 1.33397757 6.8843916 2.74983838 10 5 C10.8125 7.1875 10.8125 7.1875 11 9 C9.68 8.34 8.36 7.68 7 7 C7 6.34 7 5.68 7 5 C6.401875 4.896875 5.80375 4.79375 5.1875 4.6875 C2.70470535 3.90719311 1.64939723 2.97927667 0 1 C0 0.67 0 0.34 0 0 Z " fill="#0E79C1" transform="translate(191,283)"/>
<path d="M0 0 C0 0.99 0 1.98 0 3 C-0.99 3.33 -1.98 3.66 -3 4 C-3.15339844 4.62390625 -3.30679687 5.2478125 -3.46484375 5.890625 C-4.16174588 8.63753852 -5.22868522 9.22241214 -7.5625 10.75 C-8.20316406 11.17796875 -8.84382813 11.6059375 -9.50390625 12.046875 C-10.24447266 12.51867187 -10.24447266 12.51867187 -11 13 C-9.5834979 9.5767866 -7.93172851 8.17515341 -5 6 C-4.67 5.01 -4.34 4.02 -4 3 C-1.9375 1.3125 -1.9375 1.3125 0 0 Z " fill="#045897" transform="translate(279,184)"/>
<path d="M0 0 C0.66 0 1.32 0 2 0 C-0.00844092 4.92980953 -3.64105074 8.09403383 -8 11 C-7.690625 10.236875 -7.38125 9.47375 -7.0625 8.6875 C-6.32106407 6.81210323 -5.63771783 4.91315348 -5 3 C-3.67696283 2.6278958 -2.34262065 2.29369827 -1 2 C-0.67 1.34 -0.34 0.68 0 0 Z " fill="#024276" transform="translate(123,136)"/>
<path d="M0 0 C1.98 0.66 3.96 1.32 6 2 C6 2.66 6 3.32 6 4 C6.9590625 4.433125 6.9590625 4.433125 7.9375 4.875 C10 6 10 6 11 8 C8.97954558 7.39816251 6.97888961 6.72693904 5 6 C4.67 5.34 4.34 4.68 4 4 C3.01 3.67 2.02 3.34 1 3 C0.67 2.01 0.34 1.02 0 0 Z " fill="#014475" transform="translate(192,286)"/>
<path d="M0 0 C0.33 0.99 0.66 1.98 1 3 C-0.423125 3.8971875 -0.423125 3.8971875 -1.875 4.8125 C-5.13964197 6.81562526 -5.13964197 6.81562526 -7 10 C-7.66 9.67 -8.32 9.34 -9 9 C-7.87895467 7.68412059 -6.75303035 6.37239647 -5.625 5.0625 C-4.99851563 4.33160156 -4.37203125 3.60070312 -3.7265625 2.84765625 C-2 1 -2 1 0 0 Z " fill="#01274B" transform="translate(260,209)"/>
<path d="M0 0 C2 2 2 2 2.1953125 5.4765625 C2.18201493 6.85950968 2.15816232 8.24238654 2.125 9.625 C2.11597656 10.33140625 2.10695312 11.0378125 2.09765625 11.765625 C2.07407603 13.51056098 2.03820461 15.25532295 2 17 C1.67 17 1.34 17 1 17 C1 13.04 1 9.08 1 5 C0.34 5 -0.32 5 -1 5 C-0.67 3.35 -0.34 1.7 0 0 Z " fill="#017FD8" transform="translate(243,115)"/>
<path d="M0 0 C2.78211944 0.37596209 4.5879284 0.67318459 6.8125 2.4375 C8 4 8 4 8 6 C4.74456771 5.65120368 3.98126893 4.97866739 1.75 2.4375 C1.1725 1.633125 0.595 0.82875 0 0 Z " fill="#0C7ACC" transform="translate(144,242)"/>
<path d="M0 0 C2.97 0.495 2.97 0.495 6 1 C6.33 2.98 6.66 4.96 7 7 C4.69 6.01 2.38 5.02 0 4 C0 2.68 0 1.36 0 0 Z " fill="#095795" transform="translate(132,231)"/>
<path d="M0 0 C0.66 0.33 1.32 0.66 2 1 C-0.31 3.64 -2.62 6.28 -5 9 C-5 5.74188938 -4.4477922 3.89558441 -3 1 C-2.01 0.67 -1.02 0.34 0 0 Z " fill="#033B6D" transform="translate(72,191)"/>
<path d="M0 0 C0 3 0 3 -1.53125 4.60546875 C-2.1809375 5.12753906 -2.830625 5.64960938 -3.5 6.1875 C-4.1496875 6.71730469 -4.799375 7.24710938 -5.46875 7.79296875 C-5.9740625 8.19128906 -6.479375 8.58960938 -7 9 C-6.19095897 4.20719998 -3.74015409 2.86479887 0 0 Z " fill="#068AE5" transform="translate(85,183)"/>
<path d="M0 0 C0.33 0 0.66 0 1 0 C1 2.97 1 5.94 1 9 C-0.65 8.67 -2.3 8.34 -4 8 C-4 6.68 -4 5.36 -4 4 C-2.68 4.33 -1.36 4.66 0 5 C0 3.35 0 1.7 0 0 Z " fill="#05406F" transform="translate(236,121)"/>
<path d="M0 0 C2.3125 -0.3125 2.3125 -0.3125 5 0 C6.6875 2.3125 6.6875 2.3125 8 5 C8.99 6.485 8.99 6.485 10 8 C6.05205855 6.32971708 3.18203882 3.8204435 0 1 C0 0.67 0 0.34 0 0 Z " fill="#0B5F9A" transform="translate(133,40)"/>
<path d="M0 0 C0.33 0.99 0.66 1.98 1 3 C-0.98 4.98 -2.96 6.96 -5 9 C-5.66 8.67 -6.32 8.34 -7 8 C-6 5 -6 5 -4.0625 4 C-3.0415625 3.505 -3.0415625 3.505 -2 3 C-1.34 2.01 -0.68 1.02 0 0 Z " fill="#012B54" transform="translate(93,167)"/>
<path d="M0 0 C0.33 0 0.66 0 1 0 C1 3.3 1 6.6 1 10 C1.66 10 2.32 10 3 10 C3 11.32 3 12.64 3 14 C2.34 14 1.68 14 1 14 C-0.38226016 11.23547967 -0.09525387 8.9538637 -0.0625 5.875 C-0.05347656 4.77929688 -0.04445312 3.68359375 -0.03515625 2.5546875 C-0.02355469 1.71164063 -0.01195312 0.86859375 0 0 Z " fill="#0179D0" transform="translate(241,122)"/>
<path d="M0 0 C2.875 0.625 2.875 0.625 6 2 C7.375 5.125 7.375 5.125 8 8 C4.65001479 6.88333826 4.20659778 6.25305075 2.3125 3.4375 C1.87550781 2.79683594 1.43851563 2.15617187 0.98828125 1.49609375 C0.49908203 0.75552734 0.49908203 0.75552734 0 0 Z " fill="#003058" transform="translate(194,90)"/>
<path d="M0 0 C0.99 0 1.98 0 3 0 C4.5625 2.3125 4.5625 2.3125 6 5 C6.99 6.485 6.99 6.485 8 8 C4.21479387 7.45925627 2.40822445 5.92427254 0 3 C0 2.01 0 1.02 0 0 Z " fill="#0876C2" transform="translate(173,74)"/>
<path d="M0 0 C4.43090471 1.20842856 6.98112756 2.51668565 10 6 C9.67 6.66 9.34 7.32 9 8 C7.2925002 6.71937515 5.62626404 5.38232443 4 4 C4 3.34 4 2.68 4 2 C2.68 1.67 1.36 1.34 0 1 C0 0.67 0 0.34 0 0 Z " fill="#01315D" transform="translate(172,72)"/>
<path d="M0 0 C0.66 0.33 1.32 0.66 2 1 C-0.46153846 5.8 -0.46153846 5.8 -3.1875 6.8125 C-3.785625 6.874375 -4.38375 6.93625 -5 7 C-3.75023244 3.34683329 -3.32901247 2.21934164 0 0 Z " fill="#01325F" transform="translate(109,150)"/>
<path d="M0 0 C0.99 0 1.98 0 3 0 C2 3 2 3 0 4 C-0.65213292 6.02463255 -0.65213292 6.02463255 -1 8 C-1.66 8 -2.32 8 -3 8 C-2.45276317 4.62537285 -1.9451 2.91765 0 0 Z " fill="#0D86D9" transform="translate(316,138)"/>
<path d="M0 0 C0 3 0 3 -1.53125 4.60546875 C-2.1809375 5.12753906 -2.830625 5.64960938 -3.5 6.1875 C-4.1496875 6.71730469 -4.799375 7.24710938 -5.46875 7.79296875 C-5.9740625 8.19128906 -6.479375 8.58960938 -7 9 C-6.19095897 4.20719998 -3.74015409 2.86479887 0 0 Z " fill="#012E54" transform="translate(277,189)"/>
<path d="M0 0 C3.37462715 0.54723683 5.08235 1.0549 8 3 C8 3.66 8 4.32 8 5 C2.25 3.375 2.25 3.375 0 0 Z " fill="#034E84" transform="translate(154,58)"/>
<path d="M0 0 C1.875 0.25 1.875 0.25 4 1 C5.25 3.0625 5.25 3.0625 6 5 C4.02 4.34 2.04 3.68 0 3 C0 2.01 0 1.02 0 0 Z " fill="#0B76C5" transform="translate(224,120)"/>
</svg>
